<svg width="11" height="13" viewBox="0 0 11 13" fill="none" xmlns="http://www.w3.org/2000/svg">
<path d="M5.67873 10.6053C4.50405 10.6053 3.35053 10.1673 2.32934 9.64541C1.639 9.2911 0.821777 9.79922 0.821777 10.5772C0.821777 10.9693 1.03734 11.3119 1.35522 11.4911C5.36084 13.7282 10.4436 12.6721 10.4436 9.06588C10.4436 6.39346 7.84116 5.84483 5.60778 5.43765C4.12887 5.16779 3.12883 5.03046 3.12405 4.04993C3.12064 3.22527 3.83213 2.35804 5.62552 2.35804C7.69791 2.35804 8.64678 3.37428 9.2921 3.37428C10.3583 3.37428 10.726 1.92751 9.7778 1.41871C5.02181 -1.13424 0.98413 0.985436 0.979355 4.13989C0.97458 7.01281 3.7796 7.43784 5.60778 7.73859C7.2968 8.016 8.2982 8.19865 8.30571 9.13523C8.3173 10.3753 6.52255 10.6053 5.67873 10.6053Z" fill="#495663"/>
</svg>
